<?xml version="1.0" encoding="UTF-8"?>
<!DOCTYPE svg PUBLIC "-//W3C//DTD SVG 1.1//EN" "http://www.w3.org/Graphics/SVG/1.1/DTD/svg11.dtd">
<!-- Creator: CorelDRAW 2019 (64-Bit) -->
<svg xmlns="http://www.w3.org/2000/svg" xml:space="preserve" width="185mm" height="215mm" version="1.1"
    style="shape-rendering:geometricPrecision; text-rendering:geometricPrecision; image-rendering:optimizeQuality; fill-rule:evenodd; clip-rule:evenodd"
    viewBox="0 0 18500 21500">
 <defs>
  <style type="text/css">
   <![CDATA[
    .fil0 {fill:black}
   ]]>
  </style>
 </defs>
 <g id="Layer_x0020_1">
  <metadata id="CorelCorpID_0Corel-Layer"/>
  <g id="alarm-svgrepo-com.svg">
   <g>
    <path class="fil0" d="M15086.94 10606.73c0,-3247.06 -2632.23,-5879.3 -5879.3,-5879.3 -3247.07,0 -5879.3,2632.23 -5879.3,5879.3l0 5861.69 11758.6 0 0 -5861.69zm-5908.66 -2165.13c-1193.88,0 -2165.13,971.25 -2165.13,2165.13 0,291.71 -236.37,528.08 -528.08,528.08 -291.71,0 -528.08,-236.37 -528.08,-528.08 0,-1776.25 1445.04,-3221.29 3221.29,-3221.29 291.71,0 528.08,236.37 528.08,528.08 0,291.71 -236.36,528.08 -528.08,528.08z"/>
    <path class="fil0" d="M16286.11 17524.58l-14033.85 0c-950.26,0 -1740.34,1098.13 -1740.34,2048.74l0 1542.21 17461.86 0 0 -1542.21c0,-950.61 -737.55,-2048.74 -1687.67,-2048.74z"/>
    <path class="fil0" d="M9207.64 3636.07c291.71,0 528.08,-236.37 528.08,-528.08l0 -2464.38c0,-291.71 -236.37,-528.08 -528.08,-528.08 -291.71,0 -528.08,236.37 -528.08,528.08l0 2464.38c0,291.71 236.37,528.08 528.08,528.08z"/>
    <path class="fil0" d="M5067.07 4371.51c97.87,169.41 275.31,264.11 457.81,264.11 89.56,0 180.46,-22.81 263.55,-70.83 252.56,-145.82 339.1,-468.79 193.28,-721.36l-1232.19 -2134.22c-145.82,-252.56 -468.94,-339.1 -721.36,-193.28 -252.56,145.82 -339.1,468.79 -193.28,721.36l1232.19 2134.22z"/>
    <path class="fil0" d="M415.88 6051.58l2134.22 1232.19c83.23,48.02 173.98,70.83 263.55,70.83 182.5,0 360.01,-94.7 457.81,-264.11 145.82,-252.56 59.29,-575.54 -193.28,-721.36l-2134.22 -1232.19c-252.77,-145.75 -575.61,-59.36 -721.36,193.28 -145.89,252.49 -59.28,575.47 193.28,721.36z"/>
    <path class="fil0" d="M12697.27 4564.78c83.23,48.02 173.98,70.83 263.55,70.83 182.5,0 360.01,-94.7 457.81,-264.11l1232.19 -2134.22c145.82,-252.56 59.29,-575.54 -193.28,-721.36 -252.7,-145.82 -575.68,-59.36 -721.36,193.28l-1232.19 2134.22c-145.89,252.57 -59.28,575.54 193.28,721.36z"/>
    <path class="fil0" d="M15672.12 7354.6c89.56,0 180.46,-22.81 263.55,-70.83l2134.22 -1232.19c252.56,-145.82 339.1,-468.79 193.28,-721.36 -145.89,-252.63 -468.94,-339.03 -721.36,-193.28l-2134.22 1232.19c-252.56,145.82 -339.1,468.79 -193.28,721.36 97.8,169.41 275.31,264.11 457.81,264.11z"/>
   </g>
   <g>
   </g>
   <g>
   </g>
   <g>
   </g>
   <g>
   </g>
   <g>
   </g>
   <g>
   </g>
   <g>
   </g>
   <g>
   </g>
   <g>
   </g>
   <g>
   </g>
   <g>
   </g>
   <g>
   </g>
   <g>
   </g>
   <g>
   </g>
   <g>
   </g>
  </g>
 </g>
</svg>
