<?xml version="1.0" encoding="UTF-8"?>
<!DOCTYPE svg PUBLIC "-//W3C//DTD SVG 1.1//EN" "http://www.w3.org/Graphics/SVG/1.1/DTD/svg11.dtd">
<!-- Creator: CorelDRAW 2019 (64-Bit) -->
<svg xmlns="http://www.w3.org/2000/svg" xml:space="preserve" width="185mm" height="215mm" version="1.1"
    style="shape-rendering:geometricPrecision; text-rendering:geometricPrecision; image-rendering:optimizeQuality; fill-rule:evenodd; clip-rule:evenodd"
    viewBox="0 0 18500 21500">
 <defs>
  <style type="text/css">
   <![CDATA[
    .fil0 {fill:black}
   ]]>
  </style>
 </defs>
 <g id="Layer_x0020_1">
  <metadata id="CorelCorpID_0Corel-Layer"/>
  <path class="fil0" d="M15086.94 10606.73c0,-3247.06 -2632.23,-5879.3 -5879.3,-5879.3 -3247.07,0 -5879.3,2632.23 -5879.3,5879.3l0 5861.69 11758.6 0 0 -5861.69zm-5908.66 -2165.13c-1193.88,0 -2165.13,971.25 -2165.13,2165.13 0,291.71 -236.37,528.08 -528.08,528.08 -291.71,0 -528.08,-236.37 -528.08,-528.08 0,-1776.25 1445.04,-3221.29 3221.29,-3221.29 291.71,0 528.08,236.37 528.08,528.08 0,291.71 -236.36,528.08 -528.08,528.08z"/>
  <path class="fil0" d="M16286.11 17524.58l-14033.85 0c-950.26,0 -1740.34,1098.13 -1740.34,2048.74l0 1542.21 17461.86 0 0 -1542.21c0,-950.61 -737.55,-2048.74 -1687.67,-2048.74z"/>
  <g id="_1759802086128">
  </g>
  <g id="_1759802085680">
  </g>
  <g id="_1759802085744">
  </g>
  <g id="_1759802085616">
  </g>
  <g id="_1759802083568">
  </g>
  <g id="_1759802083760">
  </g>
  <g id="_1759802080304">
  </g>
  <g id="_1759802081360">
  </g>
  <g id="_1759802078256">
  </g>
  <g id="_1759802071184">
  </g>
  <g id="_1759802070832">
  </g>
  <g id="_1759802068336">
  </g>
  <g id="_1759802067920">
  </g>
  <g id="_1759802063856">
  </g>
  <g id="_1759802063824">
  </g>
 </g>
</svg>
